<?xml version="1.0" encoding="iso-8859-1"?>
<!-- Uploaded to: SVG Repo, www.svgrepo.com, Generator: SVG Repo Mixer Tools -->
<svg version="1.1" id="Layer_1" xmlns="http://www.w3.org/2000/svg" xmlns:xlink="http://www.w3.org/1999/xlink" 
	 viewBox="0 0 512 512" xml:space="preserve">
<path style="fill:#6B6B6B;" d="M0,355.199v-324c0.103-5.701,4.699-10.298,10.4-10.4h491.2c5.701,0.103,10.298,4.699,10.4,10.4v324H0
	z"/>
<path d="M512,355.199v41.6c-0.103,5.701-4.699,10.298-10.4,10.4H10.4c-5.701-0.102-10.297-4.699-10.4-10.4v-41.6H512z"/>
<rect x="146.4" y="480.802" style="fill:#333333;" width="219.204" height="10.4"/>
<polygon style="fill:#6B6B6B;" points="328.8,480.799 183.2,480.799 193.6,407.199 318.4,407.199 "/>
<rect x="20.8" y="41.599" width="470.403" height="292.801"/>
<polygon style="fill:#333333;" points="318.4,407.199 193.6,407.199 187.792,448.278 320.272,420.423 "/>
<rect x="118.756" y="285.751" style="fill:#999999;" width="274.483" height="8"/>
<g>
	<polygon style="fill:#FFFFFF;" points="211.072,139.023 194.648,90.439 152.144,90.439 152.144,77.454 203.968,77.454 
		223.368,134.862 	"/>
	<circle style="fill:#FFFFFF;" cx="305.265" cy="260.72" r="25"/>
	<circle style="fill:#FFFFFF;" cx="229.866" cy="260.72" r="25"/>
</g>
<polygon style="fill:#E21B1B;" points="179.576,128.119 359.856,128.119 325.496,224.534 209.6,224.534 "/>
</svg>